<svg width="100" height="100" viewBox="0 0 100 100" fill="none" xmlns="http://www.w3.org/2000/svg">
<path d="M94.1749 0L86.142 89.9895L50.0335 100L14.0245 90.0037L6 0H94.1749Z" fill="#264DE4"/>
<path d="M79.2649 84.2596L86.1296 7.35938H50.0875V92.3487L79.2649 84.2596Z" fill="#2965F1"/>
<path d="M24.3959 40.7402L25.3853 51.7787H50.0875V40.7402H24.3959Z" fill="#EBEBEB"/>
<path d="M50.0875 18.3975H50.0493H22.408L23.4114 29.4362H50.0875V18.3975Z" fill="#EBEBEB"/>
<path d="M50.0875 80.8931V69.4083L50.0391 69.4212L37.7453 66.1016L36.9594 57.2979H30.9857H25.8784L27.425 74.63L50.0366 80.9072L50.0875 80.8931Z" fill="#EBEBEB"/>
<path d="M63.6421 51.7783L62.3608 66.0945L50.0493 69.4174V80.9017L72.679 74.6299L72.845 72.7649L75.439 43.704L75.7083 40.7398L77.7011 18.3975H50.0493V29.4362H65.6038L64.5994 40.7398H50.0493V51.7783H63.6421Z" fill="white"/>
</svg>
