<svg width="100" height="100" viewBox="0 0 100 100" fill="none" xmlns="http://www.w3.org/2000/svg">
<path d="M50.0002 1C22.3894 1 0 23.3855 0 51.0002C0 73.092 14.3266 91.834 34.1933 98.4456C36.692 98.9083 37.6096 97.3609 37.6096 96.0402C37.6096 94.848 37.563 90.909 37.5418 86.7311C23.6313 89.7557 20.6961 80.8317 20.6961 80.8317C18.4217 75.0523 15.1446 73.5159 15.1446 73.5159C10.6083 70.4124 15.4865 70.476 15.4865 70.476C20.5075 70.8289 23.1513 75.6287 23.1513 75.6287C27.6108 83.2728 34.8482 81.0627 37.7014 79.7854C38.15 76.5534 39.4461 74.348 40.8758 73.0994C29.7703 71.8347 18.0954 67.5474 18.0954 48.3889C18.0954 42.9303 20.0487 38.4697 23.2474 34.9682C22.7282 33.7086 21.0169 28.6233 23.7317 21.7361C23.7317 21.7361 27.9304 20.3923 37.4853 26.8614C41.4734 25.7532 45.7509 25.198 50.0002 25.1791C54.2495 25.198 58.5301 25.7532 62.526 26.8614C72.0696 20.3923 76.2624 21.7361 76.2624 21.7361C78.9839 28.6233 77.2718 33.7086 76.7526 34.9682C79.9584 38.4697 81.8983 42.9299 81.8983 48.3889C81.8983 67.5929 70.2014 71.8218 59.0677 73.0594C60.861 74.6111 62.459 77.6541 62.459 82.3187C62.459 89.0086 62.4009 94.3932 62.4009 96.0402C62.4009 97.3707 63.3009 98.9299 65.8357 98.4389C85.6915 91.8199 100 73.0845 100 51.0002C100 23.3855 77.6137 1 50.0002 1Z" fill="#161614"/>
<path d="M18.7266 72.2268C18.6168 72.475 18.2255 72.5495 17.8698 72.3793C17.5071 72.2162 17.3032 71.8774 17.4208 71.628C17.5286 71.3723 17.92 71.3009 18.282 71.4727C18.6455 71.6354 18.8525 71.9774 18.7266 72.2268ZM21.1862 74.4212C20.9477 74.6424 20.4815 74.5396 20.165 74.1902C19.838 73.8416 19.7768 73.3758 20.0188 73.1511C20.2646 72.9303 20.7168 73.0334 21.0446 73.3824C21.3717 73.735 21.4352 74.1981 21.1858 74.4216L21.1862 74.4212ZM22.8736 77.229C22.5669 77.4419 22.0657 77.2423 21.7563 76.7976C21.4501 76.3533 21.4501 75.82 21.763 75.6063C22.0736 75.3925 22.5669 75.5847 22.8806 76.0259C23.1865 76.478 23.1865 77.0113 22.8732 77.2293L22.8736 77.229ZM25.7268 80.481C25.4527 80.7829 24.8692 80.7022 24.4417 80.2896C24.0049 79.8865 23.8829 79.3144 24.1578 79.012C24.4351 78.7093 25.0221 78.7944 25.4527 79.2034C25.8868 79.6057 26.0193 80.1822 25.7272 80.481H25.7268ZM29.4145 81.579C29.2941 81.9704 28.7318 82.1484 28.1655 81.9821C27.6001 81.8108 27.2299 81.3519 27.344 80.9563C27.4616 80.5622 28.0263 80.3767 28.5969 80.5547C29.1616 80.7253 29.5326 81.1806 29.4149 81.579H29.4145ZM33.612 82.0445C33.6261 82.457 33.1458 82.799 32.5513 82.8064C31.9533 82.8194 31.4697 82.4856 31.4635 82.0802C31.4635 81.6637 31.9329 81.3249 32.5305 81.3151C33.125 81.3033 33.612 81.6347 33.612 82.0445ZM37.735 81.8864C37.8064 82.2888 37.3931 82.7021 36.8029 82.8119C36.2225 82.9178 35.6853 82.6695 35.6112 82.2707C35.539 81.8582 35.9602 81.4453 36.5394 81.3382C37.1307 81.2355 37.6597 81.4774 37.735 81.8864Z" fill="#161614"/>
</svg>
