<svg width="85" height="85" viewBox="0 0 85 85" fill="none" xmlns="http://www.w3.org/2000/svg">
<path d="M78.9286 0H6.05246C2.71317 0 0 2.75112 0 6.12835V78.8716C0 82.2489 2.71317 85 6.05246 85H78.9286C82.2679 85 85 82.2489 85 78.8716V6.12835C85 2.75112 82.2679 0 78.9286 0ZM25.6897 72.8571H13.0915V32.2924H25.7087V72.8571H25.6897ZM19.3906 26.7522C15.3493 26.7522 12.0859 23.4699 12.0859 19.4475C12.0859 15.4252 15.3493 12.1429 19.3906 12.1429C23.4129 12.1429 26.6953 15.4252 26.6953 19.4475C26.6953 23.4888 23.4319 26.7522 19.3906 26.7522ZM72.9141 72.8571H60.3158V53.125C60.3158 48.4196 60.221 42.3672 53.7701 42.3672C47.2054 42.3672 46.1998 47.49 46.1998 52.7835V72.8571H33.6016V32.2924H45.6875V37.8326H45.8583C47.5469 34.6451 51.6641 31.2868 57.7924 31.2868C70.5424 31.2868 72.9141 39.692 72.9141 50.6205V72.8571Z" fill="black"/>
</svg>
