<svg width="100" height="100" viewBox="0 0 100 100" fill="none" xmlns="http://www.w3.org/2000/svg">
<g clip-path="url(#clip0_163_3)">
<path d="M100 0H0V100H100V0Z" fill="#888888"/>
<path d="M41.3287 60.3C41.3287 65.3867 39.952 69.2833 37.1987 71.99C34.4453 74.65 30.6653 75.98 25.8587 75.98C23.3853 75.98 21.1453 75.6533 19.1387 75C17.132 74.3 15.4053 73.2967 13.9587 71.99C12.512 70.6367 11.392 69.0033 10.5987 67.09C9.80534 65.13 9.40867 62.8667 9.40867 60.3V55.68H18.6487V60.3C18.6487 62.4933 19.2553 64.22 20.4687 65.48C21.682 66.6933 23.3853 67.3 25.5787 67.3C27.632 67.3 29.2187 66.6933 30.3387 65.48C31.5053 64.2667 32.0887 62.54 32.0887 60.3V34.68H27.0487V26H45.5287V34.68H41.3287V60.3ZM49.68 26H59.2L68.79 70.38H70.05L79.64 26H89.16L78.1 75H60.74L49.68 26Z" fill="black"/>
</g>
<defs>
<clipPath id="clip0_163_3">
<rect width="100" height="100" rx="30" fill="white"/>
</clipPath>
</defs>
</svg>
